<?xml version="1.0" encoding="UTF-8"?>
<svg width="32" height="32" viewBox="0 0 32 32" fill="none" xmlns="http://www.w3.org/2000/svg">
  <rect width="32" height="32" rx="8" fill="#4F46E5"/>
  <path d="M16 8C11.5817 8 8 11.5817 8 16C8 20.4183 11.5817 24 16 24C20.4183 24 24 20.4183 24 16C24 11.5817 20.4183 8 16 8ZM19.2 12.8C19.8627 12.8 20.4 13.3373 20.4 14C20.4 14.6627 19.8627 15.2 19.2 15.2C18.5373 15.2 18 14.6627 18 14C18 13.3373 18.5373 12.8 19.2 12.8ZM12.8 12.8C13.4627 12.8 14 13.3373 14 14C14 14.6627 13.4627 15.2 12.8 15.2C12.1373 15.2 11.6 14.6627 11.6 14C11.6 13.3373 12.1373 12.8 12.8 12.8ZM16 20.8C13.7909 20.8 11.9636 19.4182 11.2 17.5273C12.9818 18.6182 14.4364 19.2 16 19.2C17.5636 19.2 19.0182 18.6182 20.8 17.5273C20.0364 19.4182 18.2091 20.8 16 20.8Z" fill="white"/>
</svg>
